<svg id="Layer_1" data-name="Layer 1" xmlns="http://www.w3.org/2000/svg" viewBox="0 0 71.1 45.44"><defs><style>.cls-1{fill:none;stroke:#087392;stroke-miterlimit:10;stroke-width:2.5px;}</style></defs><path class="cls-1" d="M55.61,56c0-.7,0-1.77,0-3.06,0-3.63,0-5.45,0-6a13.16,13.16,0,0,0-3.27-7.24L50.24,50.26l-3.86-14.2-1.44,15.7L41.85,35.35l-2.22,8.21-3.16-7.21a18.64,18.64,0,0,0-5.76,6.18,20.44,20.44,0,0,0-2.36,7.41A26.58,26.58,0,0,0,28.08,56H2.61L16.2,26l10.19-2.86,10.18-6.43,12.08,3.93,4.91,7.51,1.21,2.16.79,1.42,9.07,14.32,1,1.38,1.11,2.29,3,6.28Z" transform="translate(-0.67 -15.34)"/><path class="cls-1" d="M28.17,38.41" transform="translate(-0.67 -15.34)"/><path class="cls-1" d="M31.66,26.6" transform="translate(-0.67 -15.34)"/><path class="cls-1" d="M33.1,38.41" transform="translate(-0.67 -15.34)"/></svg>